<svg xmlns="http://www.w3.org/2000/svg" height="24px" viewBox="0 -960 960 960" width="24px" fill="#0c964a"><path d="m338.5-315.5 198-56Q555-377 569-391t19.5-32.5l56-198q3-10.5-4.75-18.25t-18.25-4.75l-198 56Q405-583 391-569t-19.5 32.5l-56 198q-3 10.5 4.75 18.25t18.25 4.75ZM479.94-431q-20.44 0-34.69-14.31Q431-459.62 431-480.06q0-20.44 14.31-34.69Q459.62-529 480.06-529q20.44 0 34.69 14.31Q529-500.38 529-479.94q0 20.44-14.31 34.69Q500.38-431 479.94-431ZM480-90q-80.91 0-152.07-30.76-71.15-30.77-123.79-83.5Q151.5-257 120.75-328.09 90-399.17 90-480q0-80.91 30.76-152.07 30.77-71.15 83.5-123.79Q257-808.5 328.09-839.25 399.17-870 480-870q80.91 0 152.07 30.76 71.15 30.77 123.79 83.5Q808.5-703 839.25-631.91 870-560.83 870-480q0 80.91-30.76 152.07-30.77 71.15-83.5 123.79Q703-151.5 631.91-120.75 560.83-90 480-90Zm.06-75Q611-165 703-257.06q92-92.05 92-223Q795-611 702.94-703q-92.05-92-223-92Q349-795 257-702.94q-92 92.05-92 223Q165-349 257.06-257q92.05 92 223 92ZM480-480Z"/></svg>